<?xml version="1.0" encoding="UTF-8"?>
<svg xmlns="http://www.w3.org/2000/svg" xmlns:xlink="http://www.w3.org/1999/xlink" width="375pt" height="374.999991pt" viewBox="0 0 375 374.999991" version="1.2">
<defs>
<clipPath id="clip1">
  <path d="M 85.402344 173.003906 L 186.757812 173.003906 L 186.757812 300 L 85.402344 300 Z M 85.402344 173.003906 "/>
</clipPath>
<clipPath id="clip2">
  <path d="M 101 156.753906 L 181 156.753906 L 181 200 L 101 200 Z M 101 156.753906 "/>
</clipPath>
<clipPath id="clip3">
  <path d="M 188.261719 173.003906 L 289.613281 173.003906 L 289.613281 300 L 188.261719 300 Z M 188.261719 173.003906 "/>
</clipPath>
<clipPath id="clip4">
  <path d="M 194 156.753906 L 274 156.753906 L 274 200 L 194 200 Z M 194 156.753906 "/>
</clipPath>
<clipPath id="clip5">
  <path d="M 149 128 L 226 128 L 226 173.011719 L 149 173.011719 Z M 149 128 "/>
</clipPath>
<clipPath id="clip6">
  <path d="M 127.9375 75.183594 L 246.730469 75.183594 L 246.730469 141 L 127.9375 141 Z M 127.9375 75.183594 "/>
</clipPath>
<clipPath id="clip7">
  <path d="M 235 107 L 246.730469 107 L 246.730469 152 L 235 152 Z M 235 107 "/>
</clipPath>
</defs>
<g id="surface1">
<path style=" stroke:none;fill-rule:nonzero;fill:rgb(0%,62.348938%,78.42865%);fill-opacity:1;" d="M 97.957031 174.722656 L 100.375 175.539062 L 177.488281 201.597656 L 99.234375 167.285156 L 96.773438 166.207031 L 93.214844 164.648438 C 93.683594 166.628906 94.441406 169.828125 95.375 173.851562 L 97.957031 174.722656 "/>
<g clip-path="url(#clip1)" clip-rule="nonzero">
<path style=" stroke:none;fill-rule:nonzero;fill:rgb(0%,62.348938%,78.42865%);fill-opacity:1;" d="M 186.605469 220.753906 C 186.601562 219.683594 186.59375 218.761719 186.585938 218.003906 C 186.5625 215.578125 186.179688 213.550781 185.5625 211.859375 C 185.476562 211.402344 185.375 210.960938 185.25 210.527344 C 185.28125 210.769531 185.308594 211.011719 185.328125 211.257812 C 182.417969 204.25 175.4375 203.394531 175.066406 203.355469 L 174.941406 203.339844 L 174.820312 203.300781 L 96.40625 176.804688 L 93.988281 175.988281 L 91.667969 175.203125 L 89.125 174.34375 L 85.402344 173.085938 C 87.152344 178.355469 91.792969 192.445312 96.484375 207.621094 C 97.214844 209.984375 97.949219 212.375 98.671875 214.761719 C 99.78125 218.429688 100.871094 222.097656 101.898438 225.648438 C 102.320312 227.105469 102.730469 228.542969 103.128906 229.953125 C 105.4375 238.136719 107.308594 245.433594 108.21875 250.429688 C 108.25 250.597656 108.28125 250.757812 108.308594 250.917969 C 108.523438 252.15625 108.828125 253.347656 109.214844 254.496094 C 109.242188 254.578125 109.269531 254.660156 109.300781 254.742188 C 110.226562 257.394531 111.609375 259.800781 113.445312 261.945312 C 115.800781 264.699219 118.902344 267.03125 122.730469 268.917969 C 128.9375 271.980469 134.828125 272.667969 134.886719 272.671875 L 135.046875 272.703125 C 138.457031 273.582031 141.652344 274.492188 144.644531 275.414062 C 146.039062 275.84375 147.394531 276.28125 148.703125 276.71875 C 151.421875 277.628906 153.960938 278.550781 156.324219 279.480469 C 157.695312 280.015625 159.007812 280.558594 160.265625 281.101562 C 165.179688 283.214844 169.253906 285.347656 172.636719 287.425781 C 173.363281 287.871094 174.058594 288.316406 174.722656 288.753906 C 176.464844 289.910156 177.996094 291.042969 179.339844 292.136719 C 180.113281 292.765625 180.820312 293.382812 181.476562 293.984375 C 183.929688 296.242188 185.589844 298.292969 186.707031 300 C 186.707031 287.398438 186.703125 254.953125 186.652344 234.144531 C 186.640625 228.691406 186.625 224.039062 186.605469 220.753906 "/>
</g>
<g clip-path="url(#clip2)" clip-rule="nonzero">
<path style=" stroke:none;fill-rule:nonzero;fill:rgb(0%,62.348938%,78.42865%);fill-opacity:1;" d="M 180.398438 199.84375 L 101.621094 156.753906 C 101.910156 158.730469 102.375 161.902344 102.9375 165.882812 L 180.398438 199.84375 "/>
</g>
<path style=" stroke:none;fill-rule:nonzero;fill:rgb(0%,62.348938%,78.42865%);fill-opacity:1;" d="M 274.640625 175.539062 L 277.058594 174.722656 L 279.644531 173.851562 C 280.574219 169.828125 281.332031 166.628906 281.800781 164.648438 L 278.246094 166.207031 L 275.785156 167.285156 L 197.527344 201.597656 L 274.640625 175.539062 "/>
<g clip-path="url(#clip3)" clip-rule="nonzero">
<path style=" stroke:none;fill-rule:nonzero;fill:rgb(0%,62.348938%,78.42865%);fill-opacity:1;" d="M 285.894531 174.34375 L 283.347656 175.203125 L 281.027344 175.988281 L 278.609375 176.804688 L 200.195312 203.300781 L 200.074219 203.339844 L 199.949219 203.355469 C 199.582031 203.394531 192.597656 204.25 189.6875 211.257812 C 189.707031 211.011719 189.734375 210.769531 189.765625 210.527344 C 189.640625 210.960938 189.539062 211.402344 189.453125 211.859375 C 188.839844 213.550781 188.453125 215.578125 188.429688 218.003906 C 188.421875 218.761719 188.417969 219.683594 188.410156 220.753906 C 188.390625 224.039062 188.375 228.691406 188.363281 234.144531 C 188.316406 254.953125 188.308594 287.398438 188.308594 300 C 189.425781 298.292969 191.085938 296.242188 193.539062 293.984375 C 194.195312 293.382812 194.902344 292.765625 195.675781 292.136719 C 197.019531 291.042969 198.550781 289.910156 200.292969 288.753906 C 200.957031 288.316406 201.65625 287.871094 202.382812 287.425781 C 205.761719 285.347656 209.835938 283.21875 214.75 281.101562 C 216.007812 280.558594 217.320312 280.015625 218.691406 279.480469 C 221.054688 278.550781 223.59375 277.628906 226.3125 276.71875 C 227.621094 276.28125 228.976562 275.847656 230.371094 275.414062 C 233.367188 274.492188 236.558594 273.582031 239.96875 272.703125 L 240.128906 272.671875 C 240.1875 272.667969 246.078125 271.980469 252.285156 268.917969 C 256.113281 267.03125 259.214844 264.699219 261.574219 261.945312 C 263.40625 259.800781 264.789062 257.394531 265.714844 254.742188 C 265.746094 254.660156 265.773438 254.578125 265.804688 254.496094 C 266.191406 253.351562 266.492188 252.15625 266.707031 250.917969 C 266.738281 250.757812 266.765625 250.597656 266.796875 250.429688 C 267.707031 245.433594 269.578125 238.136719 271.886719 229.953125 C 272.285156 228.542969 272.695312 227.105469 273.117188 225.648438 C 274.144531 222.097656 275.234375 218.433594 276.34375 214.761719 C 277.070312 212.375 277.800781 209.984375 278.53125 207.621094 C 283.222656 192.445312 287.863281 178.359375 289.613281 173.085938 L 285.894531 174.34375 "/>
</g>
<g clip-path="url(#clip4)" clip-rule="nonzero">
<path style=" stroke:none;fill-rule:nonzero;fill:rgb(0%,62.348938%,78.42865%);fill-opacity:1;" d="M 273.394531 156.753906 L 194.617188 199.84375 L 272.078125 165.882812 C 272.640625 161.902344 273.105469 158.730469 273.394531 156.753906 "/>
</g>
<g clip-path="url(#clip5)" clip-rule="nonzero">
<path style=" stroke:none;fill-rule:nonzero;fill:rgb(0%,62.348938%,78.42865%);fill-opacity:1;" d="M 225.09375 128.445312 L 187.332031 151.273438 L 149.574219 128.445312 L 149.574219 152.359375 C 149.574219 152.359375 160.363281 173.011719 187.332031 173.011719 C 214.304688 173.011719 225.09375 152.359375 225.09375 152.359375 Z M 225.09375 128.445312 "/>
</g>
<g clip-path="url(#clip6)" clip-rule="nonzero">
<path style=" stroke:none;fill-rule:nonzero;fill:rgb(0%,62.348938%,78.42865%);fill-opacity:1;" d="M 187.332031 113.230469 L 187.332031 107.792969 L 246.667969 107.792969 L 187.332031 75.183594 L 127.996094 107.792969 L 187.332031 140.402344 L 236.960938 113.230469 Z M 187.332031 113.230469 "/>
</g>
<g clip-path="url(#clip7)" clip-rule="nonzero">
<path style=" stroke:none;fill-rule:nonzero;fill:rgb(0%,62.348938%,78.42865%);fill-opacity:1;" d="M 246.667969 107.792969 L 235.882812 113.230469 L 235.882812 151.273438 L 246.667969 151.273438 Z M 246.667969 107.792969 "/>
</g>
</g>
</svg>
